<svg width="224" height="224" viewBox="0 0 224 224" fill="none" xmlns="http://www.w3.org/2000/svg">
<path opacity="0.32" d="M23.3728 83.5983C0.139946 98.9943 -6.19453 130.335 9.22228 153.599L77.0701 255.982C88.7318 273.58 112.432 278.406 130.006 266.76L174.303 237.405C190.937 254.119 217.556 257.375 237.941 243.867L327.755 184.348C350.987 168.952 357.322 137.611 341.905 114.347L278.536 18.7227C263.988 -3.22968 234.424 -9.24999 212.501 5.27801L178.015 28.1312C161.33 12.2617 135.352 9.39133 115.366 22.6356L23.3728 83.5983ZM105.507 244.743L134.898 179.728L158.122 214.773L114.647 243.583C111.842 245.441 108.465 245.762 105.507 244.743ZM132.309 117.982L86.3307 219.691L32.3678 138.261C25.4328 127.796 28.283 113.7 38.7318 106.775L100.192 66.0466L127.363 92.2457C134.286 98.921 136.266 109.228 132.309 117.982ZM146.626 72.2452L123.902 50.3343L130.725 45.8126C141.174 38.8883 155.267 41.7569 162.202 52.2219L206.713 119.39L200.897 131.457C191.178 151.623 195.9 175.8 212.497 190.852L235.764 211.954L222.582 220.69C212.133 227.614 198.04 224.745 191.105 214.28L148.406 149.847L157.621 129.461C166.42 109.998 162.016 87.0848 146.626 72.2452ZM250.355 28.8429L220.739 90.2899L194.439 50.6027L227.86 28.455C234.906 23.7854 243.849 24.2074 250.355 28.8429ZM247.592 98.5912L268.882 54.4194L318.759 129.685C325.694 140.15 322.844 154.247 312.395 161.171L259.647 196.127L231.138 170.271C223.673 163.5 221.549 152.625 225.92 143.555L247.592 98.5912Z" stroke="#FCEDE8"/>
</svg>
