<svg width="34" height="33" viewBox="0 0 34 33" fill="none" xmlns="http://www.w3.org/2000/svg">
<rect x="0.5" width="33" height="33" rx="10.56" fill="#F7F5F4"/>
<g clip-path="url(#clip0_488_3355)">
<path d="M17 8.25C12.4437 8.25 8.75 11.9437 8.75 16.5C8.75 20.3689 11.4138 23.6155 15.0071 24.5071V19.0212H13.306V16.5H15.0071V15.4136C15.0071 12.6057 16.278 11.3042 19.0348 11.3042C19.5575 11.3042 20.4594 11.4068 20.8283 11.5091V13.7943C20.6336 13.7739 20.2954 13.7636 19.8753 13.7636C18.5226 13.7636 17.9999 14.2761 17.9999 15.6083V16.5H20.6947L20.2317 19.0212H17.9999V24.6896C22.085 24.1963 25.2503 20.7181 25.2503 16.5C25.25 11.9437 21.5563 8.25 17 8.25Z" fill="#181818"/>
</g>
<defs>
<clipPath id="clip0_488_3355">
<rect width="16.5" height="16.5" fill="white" transform="translate(8.75 8.25)"/>
</clipPath>
</defs>
</svg>
