<svg width="34" height="33" viewBox="0 0 34 33" fill="none" xmlns="http://www.w3.org/2000/svg">
<rect x="0.5" width="33" height="33" rx="10.56" fill="#F7F5F4"/>
<g clip-path="url(#clip0_488_3363)">
<path d="M17.0008 9.05901C19.4255 9.05901 19.7126 9.06965 20.6662 9.11219C21.5525 9.15118 22.031 9.30007 22.3501 9.42414C22.7719 9.58721 23.0768 9.78572 23.3923 10.1012C23.7113 10.4203 23.9063 10.7216 24.0694 11.1434C24.1934 11.4625 24.3423 11.9446 24.3813 12.8273C24.4238 13.7844 24.4345 14.0715 24.4345 16.4927C24.4345 18.9174 24.4238 19.2046 24.3813 20.1582C24.3423 21.0444 24.1934 21.523 24.0694 21.842C23.9063 22.2638 23.7078 22.5687 23.3923 22.8842C23.0732 23.2033 22.7719 23.3982 22.3501 23.5613C22.031 23.6854 21.5489 23.8342 20.6662 23.8732C19.7091 23.9158 19.422 23.9264 17.0008 23.9264C14.5761 23.9264 14.2889 23.9158 13.3353 23.8732C12.4491 23.8342 11.9705 23.6854 11.6515 23.5613C11.2296 23.3982 10.9248 23.1997 10.6093 22.8842C10.2902 22.5652 10.0953 22.2638 9.93221 21.842C9.80813 21.523 9.65925 21.0409 9.62025 20.1582C9.57771 19.201 9.56708 18.9139 9.56708 16.4927C9.56708 14.068 9.57771 13.7808 9.62025 12.8273C9.65925 11.941 9.80813 11.4625 9.93221 11.1434C10.0953 10.7216 10.2938 10.4167 10.6093 10.1012C10.9283 9.78218 11.2296 9.58721 11.6515 9.42414C11.9705 9.30007 12.4526 9.15118 13.3353 9.11219C14.2889 9.06965 14.5761 9.05901 17.0008 9.05901ZM17.0008 7.4248C14.5371 7.4248 14.2287 7.43544 13.2609 7.47798C12.2967 7.52052 11.6338 7.67649 11.0595 7.89982C10.4604 8.13379 9.95348 8.4422 9.4501 8.94912C8.94317 9.4525 8.63477 9.95942 8.4008 10.555C8.17747 11.1328 8.02149 11.7921 7.97896 12.7564C7.93642 13.7277 7.92578 14.0361 7.92578 16.4998C7.92578 18.9635 7.93642 19.2719 7.97896 20.2397C8.02149 21.2039 8.17747 21.8668 8.4008 22.4411C8.63477 23.0402 8.94317 23.5471 9.4501 24.0505C9.95348 24.5539 10.4604 24.8658 11.0559 25.0962C11.6338 25.3196 12.2931 25.4755 13.2573 25.5181C14.2251 25.5606 14.5335 25.5713 16.9972 25.5713C19.461 25.5713 19.7694 25.5606 20.7371 25.5181C21.7013 25.4755 22.3642 25.3196 22.9385 25.0962C23.5341 24.8658 24.041 24.5539 24.5444 24.0505C25.0478 23.5471 25.3597 23.0402 25.5901 22.4446C25.8135 21.8668 25.9694 21.2075 26.012 20.2432C26.0545 19.2755 26.0651 18.9671 26.0651 16.5034C26.0651 14.0396 26.0545 13.7312 26.012 12.7635C25.9694 11.7992 25.8135 11.1363 25.5901 10.5621C25.3668 9.95942 25.0584 9.4525 24.5515 8.94912C24.0481 8.44574 23.5412 8.13379 22.9456 7.90337C22.3678 7.68004 21.7084 7.52406 20.7442 7.48152C19.7729 7.43544 19.4645 7.4248 17.0008 7.4248Z" fill="#181818"/>
<path d="M17.0014 11.8379C14.4278 11.8379 12.3398 13.9258 12.3398 16.4995C12.3398 19.0731 14.4278 21.161 17.0014 21.161C19.575 21.161 21.663 19.0731 21.663 16.4995C21.663 13.9258 19.575 11.8379 17.0014 11.8379ZM17.0014 19.5233C15.3318 19.5233 13.9776 18.1691 13.9776 16.4995C13.9776 14.8298 15.3318 13.4756 17.0014 13.4756C18.6711 13.4756 20.0252 14.8298 20.0252 16.4995C20.0252 18.1691 18.6711 19.5233 17.0014 19.5233Z" fill="#181818"/>
<path d="M22.9344 11.6537C22.9344 12.2564 22.4452 12.742 21.8461 12.742C21.2435 12.742 20.7578 12.2528 20.7578 11.6537C20.7578 11.0511 21.247 10.5654 21.8461 10.5654C22.4452 10.5654 22.9344 11.0546 22.9344 11.6537Z" fill="#181818"/>
</g>
<defs>
<clipPath id="clip0_488_3363">
<rect width="18.15" height="18.15" fill="white" transform="translate(7.92578 7.4248)"/>
</clipPath>
</defs>
</svg>
