<svg width="118" height="36" viewBox="0 0 118 36" fill="none" xmlns="http://www.w3.org/2000/svg">
<g filter="url(#filter0_i_118_904)">
<rect width="36" height="36" rx="9" fill="#FCEDE8"/>
<path fill-rule="evenodd" clip-rule="evenodd" d="M9.20312 13.5561C9.20312 11.8996 10.5442 10.5566 12.1984 10.5566H18.8143C20.2456 10.5566 21.4424 11.562 21.739 12.9059H24.2431C25.8031 12.9059 27.0678 14.1724 27.0678 15.7346V22.6116C27.0678 24.2682 25.7268 25.6111 24.0725 25.6111H17.6134C16.1535 25.6111 14.9375 24.5652 14.6719 23.1808H11.4616C10.2143 23.1808 9.20312 22.1683 9.20312 20.9192V13.5561ZM14.6181 21.574V18.9694L10.9233 21.291C11.0413 21.462 11.2383 21.574 11.4616 21.574H14.6181ZM10.8077 19.4666L16.5195 15.8777C17.0179 15.5646 17.2655 14.9712 17.1379 14.396L16.6425 12.1635H12.1984C11.4304 12.1635 10.8077 12.787 10.8077 13.5561V19.4666ZM18.2862 12.1635L18.7043 14.0474C18.9792 15.2863 18.4458 16.5644 17.3723 17.2389L16.2227 17.9612V22.6116C16.2227 23.3808 16.8453 24.0043 17.6134 24.0043H18.5999L18.1265 22.1419C17.7989 20.853 18.358 19.5019 19.5 18.8229L20.205 18.4037V13.5561C20.205 12.787 19.5823 12.1635 18.8143 12.1635H18.2862ZM21.8096 17.4496L25.3912 15.3201C25.2216 14.8493 24.7716 14.5128 24.2431 14.5128H21.8096V17.4496ZM25.4632 17.146L20.3193 20.2045C19.789 20.5198 19.5294 21.1471 19.6816 21.7455L20.2557 24.0043H24.0725C24.8406 24.0043 25.4632 23.3808 25.4632 22.6116V17.146Z" fill="#E13405"/>
</g>
<path d="M42 23.1112V9.83628H44.8257L48.865 17.3082L52.8854 9.83628H55.6352V23.1112H52.7906V14.6721L49.6426 20.4562H47.9548L44.8257 14.6721V23.1112H42Z" fill="white"/>
<path d="M61.8727 23.3388C60.9624 23.3388 60.1217 23.1555 59.3504 22.7888C58.5919 22.4095 57.985 21.8406 57.5299 21.082C57.0747 20.3108 56.8472 19.3437 56.8472 18.1805V17.8012C56.8472 16.7013 57.0747 15.7847 57.5299 15.0514C57.985 14.3182 58.5919 13.7682 59.3504 13.4015C60.1217 13.0223 60.9624 12.8326 61.8727 12.8326C62.783 12.8326 63.6174 13.0223 64.376 13.4015C65.1472 13.7682 65.7603 14.3182 66.2155 15.0514C66.6706 15.7847 66.8982 16.7013 66.8982 17.8012V18.1805C66.8982 19.3184 66.6706 20.2729 66.2155 21.0441C65.7603 21.8027 65.1472 22.3779 64.376 22.7699C63.6174 23.1491 62.783 23.3388 61.8727 23.3388ZM61.8727 21.2148C62.3531 21.2148 62.7766 21.1073 63.1433 20.8924C63.5226 20.6648 63.8197 20.3235 64.0346 19.8683C64.2495 19.4132 64.357 18.8506 64.357 18.1805V17.8012C64.357 17.1817 64.2495 16.6634 64.0346 16.2462C63.8197 15.829 63.5226 15.5129 63.1433 15.298C62.7766 15.0704 62.3531 14.9566 61.8727 14.9566C61.3923 14.9566 60.9624 15.0704 60.5831 15.298C60.2165 15.5129 59.9257 15.829 59.7108 16.2462C59.4958 16.6634 59.3884 17.1817 59.3884 17.8012V18.1805C59.3884 18.8632 59.4958 19.4322 59.7108 19.8873C59.9257 20.3298 60.2165 20.6648 60.5831 20.8924C60.9624 21.1073 61.3923 21.2148 61.8727 21.2148Z" fill="white"/>
<path d="M72.2956 23.3388C71.3853 23.3388 70.5445 23.1555 69.7733 22.7888C69.0148 22.4095 68.4079 21.8406 67.9528 21.082C67.4976 20.3108 67.2701 19.3437 67.2701 18.1805V17.8012C67.2701 16.7013 67.4976 15.7847 67.9528 15.0514C68.4079 14.3182 69.0148 13.7682 69.7733 13.4015C70.5445 13.0223 71.3853 12.8326 72.2956 12.8326C73.2059 12.8326 74.0403 13.0223 74.7988 13.4015C75.5701 13.7682 76.1832 14.3182 76.6384 15.0514C77.0935 15.7847 77.3211 16.7013 77.3211 17.8012V18.1805C77.3211 19.3184 77.0935 20.2729 76.6384 21.0441C76.1832 21.8027 75.5701 22.3779 74.7988 22.7699C74.0403 23.1491 73.2059 23.3388 72.2956 23.3388ZM72.2956 21.2148C72.776 21.2148 73.1995 21.1073 73.5662 20.8924C73.9455 20.6648 74.2426 20.3235 74.4575 19.8683C74.6724 19.4132 74.7799 18.8506 74.7799 18.1805V17.8012C74.7799 17.1817 74.6724 16.6634 74.4575 16.2462C74.2426 15.829 73.9455 15.5129 73.5662 15.298C73.1995 15.0704 72.776 14.9566 72.2956 14.9566C71.8152 14.9566 71.3853 15.0704 71.006 15.298C70.6394 15.5129 70.3486 15.829 70.1337 16.2462C69.9187 16.6634 69.8113 17.1817 69.8113 17.8012V18.1805C69.8113 18.8632 69.9187 19.4322 70.1337 19.8873C70.3486 20.3298 70.6394 20.6648 71.006 20.8924C71.3853 21.1073 71.8152 21.2148 72.2956 21.2148Z" fill="white"/>
<path d="M82.2444 23.3388C81.4226 23.3388 80.7336 23.2566 80.1773 23.0922C79.621 22.9152 79.1595 22.6814 78.7929 22.3906C78.4389 22.0871 78.1734 21.7458 77.9964 21.3665C77.832 20.9872 77.7309 20.589 77.693 20.1718H80.1962C80.2594 20.5005 80.4554 20.7723 80.7841 20.9872C81.1128 21.1895 81.5996 21.2906 82.2444 21.2906C82.9776 21.2906 83.5023 21.1895 83.8184 20.9872C84.1345 20.7849 84.2925 20.5258 84.2925 20.2097C84.2925 19.9821 84.223 19.7988 84.0839 19.6597C83.9448 19.508 83.6983 19.3816 83.3443 19.2804C82.9903 19.1667 82.4909 19.0529 81.8461 18.9391C81.2898 18.8632 80.7778 18.7621 80.31 18.6357C79.8549 18.4966 79.4503 18.307 79.0963 18.0667C78.7423 17.8265 78.4642 17.5294 78.2619 17.1754C78.0722 16.8088 77.9774 16.3663 77.9774 15.8479C77.9774 15.2916 78.1418 14.7859 78.4705 14.3308C78.8118 13.8757 79.2986 13.5153 79.9307 13.2498C80.5755 12.9717 81.3467 12.8326 82.2444 12.8326C83.2179 12.8326 83.9954 12.9843 84.577 13.2878C85.1585 13.5912 85.5947 13.9831 85.8855 14.4635C86.1763 14.944 86.3533 15.456 86.4165 15.9996H83.9132C83.8121 15.633 83.6161 15.3549 83.3253 15.1652C83.0345 14.9756 82.6742 14.8808 82.2444 14.8808C81.6122 14.8808 81.1571 14.9819 80.8789 15.1842C80.6134 15.3738 80.4807 15.614 80.4807 15.9048C80.4807 16.2082 80.6261 16.4421 80.9169 16.6065C81.2203 16.7709 81.8335 16.9162 82.7564 17.0427C83.3253 17.1185 83.85 17.2323 84.3304 17.384C84.8235 17.5231 85.2533 17.7127 85.62 17.953C85.9866 18.1932 86.2711 18.4966 86.4734 18.8632C86.6883 19.2172 86.7958 19.6534 86.7958 20.1718C86.7958 20.7913 86.6251 21.3412 86.2837 21.8216C85.955 22.2894 85.4493 22.6624 84.7666 22.9405C84.0965 23.206 83.2558 23.3388 82.2444 23.3388Z" fill="white"/>
<path d="M87.6459 26.904V13.0602H89.9595V14.5394C90.2124 14.0843 90.6106 13.686 91.1543 13.3447C91.6979 13.0033 92.3869 12.8326 93.2214 12.8326C94.5615 12.8326 95.6045 13.2498 96.3505 14.0843C97.109 14.906 97.4883 16.145 97.4883 17.8012V18.1805C97.4883 19.331 97.3113 20.2919 96.9573 21.0631C96.616 21.8216 96.1292 22.3906 95.4971 22.7699C94.8649 23.1491 94.1064 23.3388 93.2214 23.3388C92.5387 23.3388 91.9318 23.1934 91.4008 22.9026C90.8825 22.5992 90.4589 22.2073 90.1302 21.7268V26.904H87.6459ZM92.6335 21.2148C93.2909 21.2148 93.8409 20.9683 94.2834 20.4752C94.7259 19.9695 94.9471 19.2046 94.9471 18.1805V17.8012C94.9471 16.853 94.7322 16.145 94.3023 15.6773C93.8851 15.1968 93.3288 14.9566 92.6335 14.9566C92.153 14.9566 91.7232 15.0514 91.3439 15.2411C90.9646 15.4181 90.6675 15.6899 90.4526 16.0565C90.2377 16.4105 90.1302 16.8657 90.1302 17.422V18.5598C90.1302 19.154 90.2313 19.6534 90.4336 20.058C90.6486 20.4499 90.9457 20.7407 91.3249 20.9303C91.7042 21.12 92.1404 21.2148 92.6335 21.2148Z" fill="white"/>
<path d="M98.5547 23.1112V13.0602H101.039V23.1112H98.5547ZM99.7874 12.093C99.3449 12.093 98.9783 11.9539 98.6875 11.6758C98.4094 11.3977 98.2703 11.0373 98.2703 10.5948C98.2703 10.1524 98.4094 9.79203 98.6875 9.51389C98.9783 9.23575 99.3386 9.09668 99.7685 9.09668C100.224 9.09668 100.59 9.23575 100.868 9.51389C101.159 9.79203 101.305 10.1524 101.305 10.5948C101.305 11.0373 101.159 11.3977 100.868 11.6758C100.59 11.9539 100.23 12.093 99.7874 12.093Z" fill="white"/>
<path d="M102.565 23.1112V13.0602H104.841V14.5584C104.98 14.2676 105.17 13.9958 105.41 13.7429C105.65 13.49 105.947 13.2751 106.301 13.0981C106.655 12.9211 107.047 12.8326 107.477 12.8326C107.717 12.8326 107.92 12.8453 108.084 12.8706C108.261 12.8958 108.375 12.9211 108.425 12.9464V15.1652C108.299 15.1146 108.135 15.0704 107.932 15.0325C107.743 14.9819 107.483 14.9566 107.155 14.9566C106.649 14.9566 106.238 15.0641 105.922 15.279C105.619 15.4939 105.397 15.7784 105.258 16.1324C105.119 16.4737 105.05 16.8467 105.05 17.2513V23.1112H102.565Z" fill="white"/>
<path d="M113.354 23.3388C112.443 23.3388 111.603 23.1555 110.832 22.7888C110.073 22.4095 109.466 21.8406 109.011 21.082C108.556 20.3108 108.328 19.3437 108.328 18.1805V17.8012C108.328 16.6887 108.543 15.7658 108.973 15.0325C109.416 14.2992 110.003 13.7492 110.737 13.3826C111.47 13.0159 112.279 12.8326 113.164 12.8326C114.744 12.8326 115.946 13.2498 116.767 14.0843C117.589 14.9187 118 16.1261 118 17.7064V18.7684H110.888C110.914 19.3626 111.04 19.8494 111.268 20.2287C111.508 20.5953 111.811 20.8671 112.178 21.0441C112.545 21.2085 112.937 21.2906 113.354 21.2906C113.999 21.2906 114.485 21.1958 114.814 21.0062C115.143 20.8165 115.377 20.5384 115.516 20.1718H117.81C117.608 21.2211 117.109 22.0113 116.312 22.5423C115.516 23.0733 114.53 23.3388 113.354 23.3388ZM113.259 14.8808C112.867 14.8808 112.488 14.944 112.121 15.0704C111.754 15.1968 111.464 15.4244 111.249 15.7531C111.034 16.0692 110.914 16.4927 110.888 17.0237H115.573C115.56 16.4548 115.446 16.0186 115.231 15.7152C115.029 15.3991 114.757 15.1842 114.416 15.0704C114.074 14.944 113.689 14.8808 113.259 14.8808Z" fill="white"/>
<defs>
<filter id="filter0_i_118_904" x="0" y="0" width="36" height="38" filterUnits="userSpaceOnUse" color-interpolation-filters="sRGB">
<feFlood flood-opacity="0" result="BackgroundImageFix"/>
<feBlend mode="normal" in="SourceGraphic" in2="BackgroundImageFix" result="shape"/>
<feColorMatrix in="SourceAlpha" type="matrix" values="0 0 0 0 0 0 0 0 0 0 0 0 0 0 0 0 0 0 127 0" result="hardAlpha"/>
<feOffset dy="2"/>
<feGaussianBlur stdDeviation="2.275"/>
<feComposite in2="hardAlpha" operator="arithmetic" k2="-1" k3="1"/>
<feColorMatrix type="matrix" values="0 0 0 0 0.882353 0 0 0 0 0.203922 0 0 0 0 0.0196078 0 0 0 0.58 0"/>
<feBlend mode="normal" in2="shape" result="effect1_innerShadow_118_904"/>
</filter>
</defs>
</svg>
