<svg width="34" height="33" viewBox="0 0 34 33" fill="none" xmlns="http://www.w3.org/2000/svg">
<rect x="0.5" width="33" height="33" rx="10.56" fill="#F7F5F4"/>
<g clip-path="url(#clip0_488_3367)">
<path d="M25.895 12.8696C25.895 12.8696 25.7177 11.6183 25.1718 11.0688C24.4806 10.3457 23.7078 10.3421 23.3533 10.2996C20.8151 10.1152 17.0043 10.1152 17.0043 10.1152H16.9972C16.9972 10.1152 13.1864 10.1152 10.6483 10.2996C10.2938 10.3421 9.521 10.3457 8.82974 11.0688C8.28382 11.6183 8.11012 12.8696 8.11012 12.8696C8.11012 12.8696 7.92578 14.3408 7.92578 15.8084V17.1838C7.92578 18.6514 8.10657 20.1225 8.10657 20.1225C8.10657 20.1225 8.28382 21.3739 8.82619 21.9234C9.51745 22.6465 10.425 22.6217 10.8291 22.6997C12.2825 22.838 17.0008 22.8805 17.0008 22.8805C17.0008 22.8805 20.8151 22.8734 23.3533 22.6926C23.7078 22.6501 24.4806 22.6465 25.1718 21.9234C25.7177 21.3739 25.895 20.1225 25.895 20.1225C25.895 20.1225 26.0758 18.655 26.0758 17.1838V15.8084C26.0758 14.3408 25.895 12.8696 25.895 12.8696ZM15.1255 18.8535V13.7523L20.0281 16.3118L15.1255 18.8535Z" fill="#181818"/>
</g>
<defs>
<clipPath id="clip0_488_3367">
<rect width="18.15" height="18.15" fill="white" transform="translate(7.92578 7.4248)"/>
</clipPath>
</defs>
</svg>
